HIERARCHY
ROOT Hips
{
	OFFSET 11.2666 35.4190 -54.3259
	CHANNELS 6 Xposition Yposition Zposition Xrotation Yrotation Zrotation
	JOINT Spine
	{
		OFFSET 0.0000 8.4730 0.0000
		CHANNELS 3 Xrotation Yrotation Zrotation
		JOINT Head
		{
			OFFSET 0.0000 13.8244 0.0000
			CHANNELS 3 Xrotation Yrotation Zrotation
			End Site
			{
				OFFSET 0.0000 4.5275 0.0000
			}
		}
		JOINT LeftShoulder
		{
			OFFSET 0.0000 9.9635 0.0000
			CHANNELS 3 Xrotation Yrotation Zrotation
			JOINT LeftArm
			{
				OFFSET 7.3084 0.0000 0.0000
				CHANNELS 3 Xrotation Yrotation Zrotation
				JOINT LeftForeArm
				{
					OFFSET 10.7061 0.0000 0.0000
					CHANNELS 3 Xrotation Yrotation Zrotation
					JOINT LeftHand
					{
						OFFSET 8.4968 0.0000 0.0000
						CHANNELS 3 Xrotation Yrotation Zrotation
						JOINT LeftHandThumb1
						{
							OFFSET 0.0000 0.0000 0.0000
							CHANNELS 3 Xrotation Yrotation Zrotation
							End Site
							{
								OFFSET 0.0000 0.0000 3.9370
							}
						}
						JOINT LeftHand_End
						{
							OFFSET 3.9370 0.0000 0.0000
							CHANNELS 3 Xrotation Yrotation Zrotation
							End Site
							{
								OFFSET 0.0000 0.0000 0.0000
							}
						}
					}
				}
			}
		}
		JOINT RightShoulder
		{
			OFFSET 0.0000 9.9635 0.0000
			CHANNELS 3 Xrotation Yrotation Zrotation
			JOINT RightArm
			{
				OFFSET -7.3084 0.0000 0.0000
				CHANNELS 3 Xrotation Yrotation Zrotation
				JOINT RightForeArm
				{
					OFFSET -10.7061 0.0000 0.0000
					CHANNELS 3 Xrotation Yrotation Zrotation
					JOINT RightHand
					{
						OFFSET -8.4968 0.0000 0.0000
						CHANNELS 3 Xrotation Yrotation Zrotation
						JOINT RightHandThumb1
						{
							OFFSET 0.0000 0.0000 0.0000
							CHANNELS 3 Xrotation Yrotation Zrotation
							End Site
							{
								OFFSET 0.0000 0.0000 3.9370
							}
						}
						JOINT RightHand_End
						{
							OFFSET -3.9370 0.0000 0.0000
							CHANNELS 3 Xrotation Yrotation Zrotation
							End Site
							{
								OFFSET 0.0000 0.0000 0.0000
							}
						}
					}
				}
			}
		}
	}
	JOINT LeftUpLeg
	{
		OFFSET 4.0316 0.0000 0.0000
		CHANNELS 3 Xrotation Yrotation Zrotation
		JOINT LeftLeg
		{
			OFFSET 0.0000 -16.7874 0.0000
			CHANNELS 3 Xrotation Yrotation Zrotation
			JOINT LeftFoot
			{
				OFFSET 0.0000 -15.4942 0.0000
				CHANNELS 3 Xrotation Yrotation Zrotation
				JOINT LeftToeBase
				{
					OFFSET 0.0000 -1.4513 5.4164
					CHANNELS 3 Xrotation Yrotation Zrotation
					End Site
					{
						OFFSET 0.0000 0.0000 2.9527
					}
				}
			}
		}
	}
	JOINT RightUpLeg
	{
		OFFSET -4.0316 0.0000 0.0000
		CHANNELS 3 Xrotation Yrotation Zrotation
		JOINT RightLeg
		{
			OFFSET 0.0000 -16.7874 0.0000
			CHANNELS 3 Xrotation Yrotation Zrotation
			JOINT RightFoot
			{
				OFFSET 0.0000 -15.4942 0.0000
				CHANNELS 3 Xrotation Yrotation Zrotation
				JOINT RightToeBase
				{
					OFFSET 0.0000 -1.4513 5.4164
					CHANNELS 3 Xrotation Yrotation Zrotation
					End Site
					{
						OFFSET 0.0000 0.0000 2.9527
					}
				}
			}
		}
	}
}
MOTION
Frames: 19
Frame Time: 0.008333
54.6258 32.6106 63.8861 -13.9094 -55.2846 2.5518 16.1323 -5.5676 -14.4946 -2.5233 -23.8922 13.0157 -4.3718 -3.3220 4.7084 -24.2821 4.8529 -77.7843 -79.9064 -54.0616 -77.6001 -0.3805 -2.9033 -7.4706 -0.0000 0.0000 -0.0000 -0.0000 0.0000 -0.0000 14.4233 -1.1325 -4.0661 6.7847 11.0362 78.8748 -60.5915 42.3511 50.0805 0.3341 3.0183 -6.3186 -0.0000 0.0000 -0.0000 -0.0000 0.0000 -0.0000 20.0382 6.5694 -2.7372 8.2279 0.0000 0.0000 -7.8788 12.2982 -15.3044 -9.0303 -0.0000 0.0000 -30.3226 -29.8520 -5.1437 22.9201 0.0000 0.0000 -6.4555 -3.7121 8.4153 -12.3338 0.0000 0.0000 
54.2832 32.4432 64.2796 -14.3888 -55.4624 2.4798 16.5389 -5.6769 -14.4986 -3.1504 -23.7853 12.9296 -4.5039 -3.8252 4.8463 -25.7253 5.4522 -78.1826 -84.1962 -53.5672 -82.7997 -0.3467 -2.2603 -8.7223 -0.0000 0.0000 -0.0000 -0.0000 0.0000 -0.0000 14.8614 -1.6053 -4.3032 7.9216 10.9820 78.2363 -63.2091 41.4416 52.6597 0.2368 2.6658 -5.0774 -0.0000 0.0000 -0.0000 -0.0000 0.0000 -0.0000 21.6545 5.8385 -3.3942 7.5077 -0.0000 0.0000 -8.6466 13.2325 -14.7968 -9.0918 0.0000 -0.0000 -30.3506 -30.4290 -5.2839 19.0691 0.0000 0.0000 -6.8388 -3.1563 8.2974 -12.2794 0.0000 -0.0000 
53.9230 32.2683 64.6645 -14.7717 -55.6175 2.4446 16.7845 -5.8748 -14.4679 -3.6676 -23.5219 12.8582 -4.7245 -4.2274 5.0899 -26.7738 5.9292 -78.5518 -88.6283 -53.3649 -88.2908 -0.2711 -1.6070 -9.5756 -0.0000 0.0000 -0.0000 -0.0000 0.0000 -0.0000 15.1157 -2.0979 -4.6545 9.2494 11.3475 77.5191 -65.4484 40.8282 55.0575 0.1173 2.0094 -3.3420 -0.0000 0.0000 -0.0000 -0.0000 0.0000 -0.0000 23.2299 5.4442 -3.9254 6.7989 0.0000 -0.0000 -9.4728 13.8892 -14.6532 -8.9007 0.0000 0.0000 -30.3718 -30.9507 -5.3623 15.3690 -0.0000 0.0000 -7.3643 -2.5356 8.4851 -12.4255 0.0000 0.0000 
53.5544 32.0926 65.0402 -14.8963 -55.7954 2.5793 16.7713 -6.0406 -14.3796 -4.0348 -23.1414 12.7397 -5.0355 -4.5695 5.3656 -27.4697 6.4739 -79.0167 -93.2071 -53.3156 -93.9969 -0.1547 -0.8634 -10.1587 -0.0000 0.0000 -0.0000 -0.0000 0.0000 -0.0000 15.2349 -2.7032 -5.0579 10.6869 12.1305 76.7258 -67.7412 40.0504 57.5405 0.0439 1.2382 -2.0316 -0.0000 0.0000 -0.0000 -0.0000 0.0000 -0.0000 24.6421 5.4923 -4.3627 6.1587 0.0000 0.0000 -10.1330 14.0818 -14.4547 -8.9093 -0.0000 -0.0000 -30.4943 -31.4803 -5.3700 11.8741 -0.0000 -0.0000 -7.8613 -1.7554 8.6986 -12.5152 -0.0000 0.0000 
53.1716 31.9215 65.4024 -14.7389 -55.8910 2.9427 16.4335 -6.3290 -14.3199 -4.1420 -22.6847 12.6958 -5.3190 -4.8395 5.8734 -27.7764 7.1462 -79.6031 -97.8576 -53.2036 -99.7785 0.0081 0.0420 -10.9430 -0.0000 0.0000 -0.0000 -0.0000 0.0000 -0.0000 15.3981 -3.3210 -5.4214 12.0995 13.1193 75.8354 -69.6800 39.5627 59.8263 0.0087 0.7848 -0.6375 -0.0000 0.0000 -0.0000 -0.0000 0.0000 -0.0000 25.8202 5.8673 -4.6840 5.6795 -0.0000 -0.0000 -10.6149 13.7398 -14.4241 -9.2757 0.0000 -0.0000 -30.6965 -31.8638 -5.3741 8.6008 0.0000 -0.0000 -8.3672 -0.9974 9.3333 -12.2727 -0.0000 -0.0000 
52.7826 31.7589 65.7507 -14.3008 -55.9545 3.5668 15.8323 -6.6645 -14.3113 -4.1110 -22.2567 12.6470 -5.5964 -4.9327 6.5532 -27.7359 7.7650 -80.3594 -102.4338 -52.7643 -105.4792 0.2487 1.1905 -11.8019 -0.0000 0.0000 -0.0000 -0.0000 0.0000 -0.0000 15.4943 -4.0123 -5.7665 13.5206 14.2044 74.9345 -71.3198 39.4610 61.9883 -0.0012 0.2528 0.2750 -0.0000 0.0000 -0.0000 -0.0000 0.0000 -0.0000 26.6976 6.4389 -4.9705 5.4740 -0.0000 0.0000 -10.9735 13.1027 -14.3751 -9.7138 -0.0000 -0.0000 -31.1594 -31.5199 -5.4815 6.0870 0.0000 0.0000 -8.6613 -0.8360 11.1785 -12.3265 -0.0000 -0.0000 
52.3925 31.6156 66.0904 -13.5657 -55.9461 4.4679 14.9966 -7.0616 -14.3055 -4.0242 -21.9293 12.5617 -5.6968 -4.8957 7.3532 -27.3786 8.1155 -81.1472 -106.7517 -51.8763 -110.9381 0.4731 2.1759 -12.2702 -0.0000 0.0000 -0.0000 -0.0000 0.0000 -0.0000 15.4992 -4.7946 -6.0789 14.8833 15.1905 74.0876 -72.2153 40.5030 63.7161 0.0148 -0.6480 1.3050 -0.0000 0.0000 -0.0000 -0.0000 0.0000 -0.0000 27.1688 6.8082 -5.2059 5.6603 -0.0000 0.0000 -11.1667 12.5194 -14.5351 -10.2463 -0.0000 0.0000 -31.9339 -30.6226 -5.7652 4.4564 -0.0000 0.0000 -8.9695 -1.3141 12.5184 -12.1817 0.0000 -0.0000 
51.9839 31.4948 66.4173 -12.8570 -55.8354 5.3040 14.1587 -7.5477 -14.2359 -3.9423 -21.6694 12.4549 -5.5646 -4.6762 8.3213 -26.9049 8.2591 -82.0261 -110.4390 -50.7631 -115.6949 0.6512 2.8818 -12.7399 -0.0000 0.0000 -0.0000 -0.0000 0.0000 -0.0000 15.4267 -5.4785 -6.3948 16.2125 15.9879 73.3739 -72.9719 41.6711 65.2667 0.0473 -1.0552 2.5694 -0.0000 0.0000 -0.0000 -0.0000 0.0000 -0.0000 27.4271 7.0515 -5.2949 6.1901 0.0000 0.0000 -11.2774 12.0306 -14.8313 -11.0114 0.0000 -0.0000 -32.7900 -29.1049 -6.1720 3.8660 0.0000 -0.0000 -9.1487 -2.6026 13.4925 -12.1469 -0.0000 -0.0000 
51.5566 31.3989 66.7351 -12.2100 -55.7026 6.0085 13.3890 -7.9975 -14.0072 -4.0016 -21.4506 12.2077 -5.1245 -4.2566 9.1854 -26.5077 8.1556 -82.9048 -113.9623 -49.7467 -120.2137 0.8826 3.8465 -12.9330 -0.0000 0.0000 -0.0000 -0.0000 0.0000 -0.0000 15.2597 -6.2526 -6.7876 17.4382 16.7804 72.7652 -73.5979 43.2321 66.7446 0.0837 -1.4653 3.2685 -0.0000 0.0000 -0.0000 -0.0000 0.0000 -0.0000 27.5114 7.0430 -5.2309 7.0514 0.0000 -0.0000 -11.2288 11.7731 -15.4298 -11.4934 -0.0000 0.0000 -33.6741 -27.4975 -6.6151 4.2231 -0.0000 0.0000 -9.2924 -4.1665 13.1951 -11.9784 0.0000 0.0000 
51.0954 31.3309 67.0368 -11.7771 -55.5447 6.4175 12.7252 -8.5087 -13.6632 -4.0403 -21.1822 11.9781 -4.6608 -3.7482 10.0916 -25.7663 7.8055 -83.6985 -117.5733 -49.3175 -124.5516 1.0179 4.3785 -13.1013 -0.0000 0.0000 -0.0000 -0.0000 0.0000 -0.0000 15.3251 -6.9019 -7.1158 18.2452 17.2712 72.3874 -74.1103 45.0547 68.0905 0.1178 -1.8282 3.6874 -0.0000 0.0000 -0.0000 -0.0000 0.0000 -0.0000 27.5590 7.0405 -4.9836 8.1232 0.0000 0.0000 -10.7649 11.3766 -15.6764 -12.8195 -0.0000 -0.0000 -34.4179 -25.9253 -6.9850 5.4354 -0.0000 0.0000 -9.6038 -6.0140 12.2183 -11.6328 0.0000 0.0000 
50.5772 31.2871 67.3253 -11.7361 -55.4023 6.2780 12.2938 -8.9913 -13.0703 -4.0911 -20.7964 11.7294 -4.0724 -3.1862 10.9490 -24.7560 7.2016 -84.3058 -121.0621 -49.0341 -128.5791 1.1837 5.0048 -13.3252 -0.0000 0.0000 -0.0000 -0.0000 0.0000 -0.0000 15.3801 -7.4267 -7.4920 18.8965 17.4941 72.3381 -74.6344 46.8819 69.3704 0.1319 -1.9626 3.8461 -0.0000 0.0000 -0.0000 -0.0000 0.0000 -0.0000 27.7524 7.0688 -4.4240 9.3032 0.0000 0.0000 -9.9396 10.8694 -15.7929 -14.6786 -0.0000 0.0000 -34.6725 -24.5214 -7.0745 7.0923 -0.0000 0.0000 -10.0947 -8.2221 11.1965 -11.2665 0.0000 0.0000 
50.0041 31.2655 67.5999 -12.1117 -55.3822 5.5657 12.1429 -9.3746 -12.2620 -4.1068 -20.4642 11.4968 -3.6337 -2.5199 11.7760 -23.3193 6.2751 -84.7874 -124.0775 -48.8533 -131.9349 1.4124 5.7264 -13.8802 -0.0000 0.0000 -0.0000 -0.0000 0.0000 -0.0000 15.7561 -7.9565 -7.8194 18.9701 17.6092 72.4643 -75.1763 48.5099 70.5412 0.1343 -1.9849 3.8706 -0.0000 0.0000 -0.0000 -0.0000 0.0000 -0.0000 28.1280 7.3131 -3.5931 10.6315 -0.0000 0.0000 -8.8613 10.3579 -16.5865 -16.5566 -0.0000 -0.0000 -34.3929 -23.4780 -6.8094 8.9497 -0.0000 0.0000 -10.5317 -10.3377 10.7034 -11.1726 0.0000 -0.0000 
49.3760 31.2662 67.8627 -12.8726 -55.4434 4.3323 12.2307 -9.5992 -11.2542 -4.0202 -20.2849 11.2039 -3.1939 -1.7935 12.5354 -21.6137 4.9406 -85.1400 -126.3990 -48.9101 -134.3683 1.6786 6.3249 -14.8964 -0.0000 0.0000 -0.0000 -0.0000 0.0000 -0.0000 15.9554 -8.3933 -8.2152 19.0529 17.5741 72.8781 -75.6473 50.0909 71.5524 0.1305 -1.9796 3.7735 -0.0000 0.0000 -0.0000 -0.0000 0.0000 -0.0000 28.6594 7.8679 -2.5016 12.0386 0.0000 -0.0000 -7.3104 9.4657 -17.2273 -18.6715 0.0000 0.0000 -33.4959 -23.0833 -6.2208 10.5916 -0.0000 0.0000 -10.9969 -11.9346 10.0811 -10.9520 -0.0000 0.0000 
48.7033 31.2869 68.1191 -13.9119 -55.5982 2.7663 12.4414 -9.7022 -10.1762 -3.7769 -20.2944 10.8542 -2.6157 -0.8777 13.2306 -19.8668 3.1632 -85.3890 -128.3319 -49.3761 -136.1704 1.9511 6.9589 -15.7045 -0.0000 0.0000 -0.0000 -0.0000 0.0000 -0.0000 16.2409 -8.7892 -8.5994 18.9233 17.4380 73.4853 -76.2233 51.3593 72.5720 0.1290 -2.0099 3.6717 -0.0000 0.0000 -0.0000 -0.0000 0.0000 -0.0000 29.2697 8.4331 -1.3015 13.5071 0.0000 -0.0000 -5.1179 8.5343 -17.8198 -21.8842 -0.0000 0.0000 -32.1155 -23.1118 -5.4029 12.0538 -0.0000 0.0000 -11.2236 -13.0779 9.9690 -10.9449 -0.0000 0.0000 
47.9902 31.3232 68.3603 -15.0316 -55.7874 1.0384 12.6157 -9.6466 -9.0880 -3.2821 -20.5678 10.5668 -1.8963 0.1679 13.9241 -18.0708 1.0997 -85.6696 -130.3181 -50.6309 -137.6664 2.2549 7.5565 -16.6688 -0.0000 0.0000 -0.0000 -0.0000 0.0000 -0.0000 16.5080 -9.2339 -8.9451 18.7117 17.2523 74.2905 -76.7711 52.3123 73.4555 0.1215 -1.9788 3.5147 -0.0000 0.0000 -0.0000 -0.0000 0.0000 -0.0000 29.7139 9.4554 0.0806 15.2124 0.0000 0.0000 -2.3751 7.1363 -17.8580 -26.2347 0.0000 -0.0000 -30.3664 -23.2074 -4.3706 13.3249 -0.0000 -0.0000 -11.5112 -13.6287 9.8868 -10.7909 -0.0000 0.0000 
47.2471 31.3697 68.5953 -16.2126 -55.9760 -0.7108 12.6910 -9.5104 -8.1371 -2.4869 -21.0620 10.3840 -1.0460 1.2292 14.6811 -16.2200 -1.0954 -85.9020 -131.6007 -52.2104 -138.3288 2.6088 8.1551 -17.8070 -0.0000 0.0000 -0.0000 -0.0000 0.0000 -0.0000 16.6565 -9.6274 -9.2696 18.5924 17.0638 75.1962 -77.1611 53.1565 74.1037 0.1131 -1.8757 3.4523 -0.0000 0.0000 -0.0000 -0.0000 0.0000 -0.0000 29.9877 10.5644 1.5106 17.0678 -0.0000 0.0000 0.9750 5.4892 -17.4874 -31.2218 0.0000 0.0000 -28.2741 -23.5764 -3.2531 14.1612 -0.0000 -0.0000 -11.6088 -13.5282 9.7210 -11.3814 0.0000 -0.0000 
46.4916 31.4273 68.8146 -17.2385 -56.1725 -2.3213 12.5619 -9.3185 -7.2953 -1.4659 -21.6736 10.3370 -0.1652 2.3175 15.4293 -14.2939 -3.3427 -86.1229 -131.7922 -53.9133 -137.8838 3.0813 8.9234 -19.1386 -0.0000 0.0000 -0.0000 -0.0000 0.0000 -0.0000 16.7896 -10.0434 -9.5765 18.3386 16.7731 76.2975 -77.3432 53.9740 74.4814 0.1312 -2.0943 3.5861 -0.0000 0.0000 -0.0000 -0.0000 0.0000 -0.0000 29.8403 11.8295 3.0778 19.2094 -0.0000 -0.0000 4.6502 3.4389 -17.6205 -35.8161 0.0000 0.0000 -26.0230 -24.2008 -2.0454 14.5113 -0.0000 0.0000 -11.3650 -12.8886 9.7457 -11.9662 -0.0000 -0.0000 
45.7333 31.4847 69.0151 -17.9961 -56.2656 -3.6060 12.1603 -9.1520 -6.6934 -0.2150 -22.4810 10.4708 0.6936 3.3413 16.3604 -12.2944 -5.5269 -86.4165 -131.0098 -55.8064 -136.4328 3.6885 9.7320 -20.8751 -0.0000 0.0000 -0.0000 -0.0000 0.0000 -0.0000 16.9903 -10.6737 -9.7272 17.9387 16.7319 77.3439 -77.2335 55.0963 74.5556 0.1439 -2.2753 3.6204 -0.0000 0.0000 -0.0000 -0.0000 0.0000 -0.0000 29.1566 12.9500 4.7536 21.7544 -0.0000 -0.0000 8.4428 1.4871 -17.6020 -39.0625 -0.0000 -0.0000 -23.6813 -25.1208 -0.8259 14.0481 0.0000 0.0000 -11.1033 -11.8942 9.8197 -11.5757 -0.0000 0.0000 
44.9889 31.5377 69.1931 -18.3814 -56.3160 -4.5045 11.4631 -9.0833 -6.2783 1.2024 -23.4112 10.7576 1.5009 4.3803 17.4468 -10.2078 -7.8756 -86.6848 -129.6464 -57.9597 -134.3492 4.1551 10.3197 -22.0744 -0.0000 0.0000 -0.0000 -0.0000 0.0000 -0.0000 17.0278 -11.1888 -9.9216 17.5790 16.6357 78.5329 -76.5864 56.7526 74.0839 0.1643 -2.4959 3.7676 -0.0000 0.0000 -0.0000 -0.0000 0.0000 -0.0000 27.8757 13.5821 6.4936 24.8523 -0.0000 -0.0000 12.0459 -0.0728 -17.7689 -39.5372 0.0000 0.0000 -21.3646 -26.4081 0.5523 12.8346 -0.0000 0.0000 -10.2217 -10.3734 9.2480 -12.2195 0.0000 0.0000 
